<mxfile host="app.diagrams.net" modified="2023-04-09T14:02:40.552Z" agent="Mozilla/5.0 (Windows NT 10.0; Win64; x64) AppleWebKit/537.36 (KHTML, like Gecko) Chrome/108.0.0.0 Safari/537.36 Edg/108.0.1462.46" etag="bsnubb3hIq2Iehpt3py5" version="21.1.0" type="github" pages="3">
  <diagram name="第 1 页" id="fMwzvI-S8rYG5-Zs5YoQ">
    <mxGraphModel dx="1516" dy="829" grid="1" gridSize="10" guides="1" tooltips="1" connect="1" arrows="1" fold="1" page="1" pageScale="1" pageWidth="827" pageHeight="1169" math="0" shadow="0">
      <root>
        <mxCell id="0" />
        <mxCell id="1" parent="0" />
        <mxCell id="u8FlF9j5GDv0sumwHlBN-1" value="" style="rounded=0;whiteSpace=wrap;html=1;" parent="1" vertex="1">
          <mxGeometry x="150" y="220" width="650" height="200" as="geometry" />
        </mxCell>
        <mxCell id="u8FlF9j5GDv0sumwHlBN-2" value="&lt;font style=&quot;font-size: 14px;&quot;&gt;Components&lt;/font&gt;" style="text;html=1;strokeColor=none;fillColor=none;align=center;verticalAlign=middle;whiteSpace=wrap;rounded=0;" parent="1" vertex="1">
          <mxGeometry x="470" y="160" width="60" height="30" as="geometry" />
        </mxCell>
        <mxCell id="u8FlF9j5GDv0sumwHlBN-3" value="&lt;font style=&quot;font-size: 14px;&quot;&gt;Tools&lt;/font&gt;" style="text;html=1;strokeColor=none;fillColor=none;align=center;verticalAlign=middle;whiteSpace=wrap;rounded=0;" parent="1" vertex="1">
          <mxGeometry x="70" y="300" width="50" height="30" as="geometry" />
        </mxCell>
        <mxCell id="u8FlF9j5GDv0sumwHlBN-4" value="&lt;span style=&quot;font-size: 14px;&quot;&gt;etcdctl&lt;/span&gt;" style="text;html=1;strokeColor=none;fillColor=none;align=center;verticalAlign=middle;whiteSpace=wrap;rounded=0;" parent="1" vertex="1">
          <mxGeometry x="180" y="240" width="60" height="30" as="geometry" />
        </mxCell>
        <mxCell id="u8FlF9j5GDv0sumwHlBN-5" value="&lt;font style=&quot;font-size: 14px;&quot;&gt;kubectl&lt;/font&gt;" style="text;html=1;strokeColor=none;fillColor=none;align=center;verticalAlign=middle;whiteSpace=wrap;rounded=0;" parent="1" vertex="1">
          <mxGeometry x="180" y="305" width="60" height="30" as="geometry" />
        </mxCell>
        <mxCell id="u8FlF9j5GDv0sumwHlBN-6" value="&lt;font style=&quot;font-size: 14px;&quot;&gt;kwokctl&lt;/font&gt;" style="text;html=1;strokeColor=none;fillColor=none;align=center;verticalAlign=middle;whiteSpace=wrap;rounded=0;" parent="1" vertex="1">
          <mxGeometry x="180" y="380" width="60" height="30" as="geometry" />
        </mxCell>
        <mxCell id="u8FlF9j5GDv0sumwHlBN-7" value="&lt;font style=&quot;font-size: 14px;&quot;&gt;etcd&lt;/font&gt;" style="text;html=1;strokeColor=none;fillColor=none;align=center;verticalAlign=middle;whiteSpace=wrap;rounded=0;" parent="1" vertex="1">
          <mxGeometry x="310" y="240" width="60" height="30" as="geometry" />
        </mxCell>
        <mxCell id="u8FlF9j5GDv0sumwHlBN-8" value="&lt;font style=&quot;font-size: 14px;&quot;&gt;kube-apiserver&lt;/font&gt;" style="text;html=1;strokeColor=none;fillColor=none;align=center;verticalAlign=middle;whiteSpace=wrap;rounded=0;" parent="1" vertex="1">
          <mxGeometry x="294" y="305" width="120" height="30" as="geometry" />
        </mxCell>
        <mxCell id="u8FlF9j5GDv0sumwHlBN-9" value="&lt;font style=&quot;font-size: 14px;&quot;&gt;binary&lt;/font&gt;" style="text;html=1;strokeColor=none;fillColor=none;align=center;verticalAlign=middle;whiteSpace=wrap;rounded=0;" parent="1" vertex="1">
          <mxGeometry x="300" y="380" width="60" height="30" as="geometry" />
        </mxCell>
        <mxCell id="u8FlF9j5GDv0sumwHlBN-10" value="&lt;font style=&quot;font-size: 14px;&quot;&gt;docker&lt;/font&gt;" style="text;html=1;strokeColor=none;fillColor=none;align=center;verticalAlign=middle;whiteSpace=wrap;rounded=0;" parent="1" vertex="1">
          <mxGeometry x="405" y="380" width="60" height="30" as="geometry" />
        </mxCell>
        <mxCell id="u8FlF9j5GDv0sumwHlBN-11" value="&lt;font style=&quot;font-size: 14px;&quot;&gt;nerdctl&lt;/font&gt;" style="text;html=1;strokeColor=none;fillColor=none;align=center;verticalAlign=middle;whiteSpace=wrap;rounded=0;" parent="1" vertex="1">
          <mxGeometry x="510" y="380" width="60" height="30" as="geometry" />
        </mxCell>
        <mxCell id="u8FlF9j5GDv0sumwHlBN-12" value="&lt;span style=&quot;font-size: 14px;&quot;&gt;podman&lt;/span&gt;" style="text;html=1;strokeColor=none;fillColor=none;align=center;verticalAlign=middle;whiteSpace=wrap;rounded=0;" parent="1" vertex="1">
          <mxGeometry x="610" y="380" width="60" height="30" as="geometry" />
        </mxCell>
        <mxCell id="u8FlF9j5GDv0sumwHlBN-13" value="&lt;font style=&quot;font-size: 14px;&quot;&gt;kind&lt;/font&gt;" style="text;html=1;strokeColor=none;fillColor=none;align=center;verticalAlign=middle;whiteSpace=wrap;rounded=0;" parent="1" vertex="1">
          <mxGeometry x="710" y="380" width="60" height="30" as="geometry" />
        </mxCell>
        <mxCell id="u8FlF9j5GDv0sumwHlBN-16" value="" style="endArrow=none;html=1;rounded=0;" parent="1" edge="1">
          <mxGeometry width="50" height="50" relative="1" as="geometry">
            <mxPoint x="270" y="420" as="sourcePoint" />
            <mxPoint x="270" y="220" as="targetPoint" />
          </mxGeometry>
        </mxCell>
        <mxCell id="u8FlF9j5GDv0sumwHlBN-17" value="" style="endArrow=none;html=1;rounded=0;" parent="1" edge="1">
          <mxGeometry width="50" height="50" relative="1" as="geometry">
            <mxPoint x="270" y="370" as="sourcePoint" />
            <mxPoint x="800" y="370" as="targetPoint" />
          </mxGeometry>
        </mxCell>
        <mxCell id="u8FlF9j5GDv0sumwHlBN-19" value="" style="endArrow=classic;html=1;rounded=0;exitX=1;exitY=0.5;exitDx=0;exitDy=0;entryX=0;entryY=0.5;entryDx=0;entryDy=0;" parent="1" source="u8FlF9j5GDv0sumwHlBN-4" target="u8FlF9j5GDv0sumwHlBN-7" edge="1">
          <mxGeometry width="50" height="50" relative="1" as="geometry">
            <mxPoint x="260" y="255" as="sourcePoint" />
            <mxPoint x="300" y="255" as="targetPoint" />
          </mxGeometry>
        </mxCell>
        <mxCell id="u8FlF9j5GDv0sumwHlBN-20" value="" style="endArrow=classic;html=1;rounded=0;entryX=0;entryY=0.5;entryDx=0;entryDy=0;exitX=1;exitY=0.5;exitDx=0;exitDy=0;" parent="1" source="u8FlF9j5GDv0sumwHlBN-5" target="u8FlF9j5GDv0sumwHlBN-8" edge="1">
          <mxGeometry width="50" height="50" relative="1" as="geometry">
            <mxPoint x="260" y="325" as="sourcePoint" />
            <mxPoint x="300" y="324.5" as="targetPoint" />
          </mxGeometry>
        </mxCell>
        <mxCell id="u8FlF9j5GDv0sumwHlBN-22" value="" style="endArrow=classic;html=1;rounded=0;" parent="1" edge="1">
          <mxGeometry width="50" height="50" relative="1" as="geometry">
            <mxPoint x="240" y="395" as="sourcePoint" />
            <mxPoint x="270" y="395" as="targetPoint" />
          </mxGeometry>
        </mxCell>
        <mxCell id="u8FlF9j5GDv0sumwHlBN-23" value="" style="endArrow=none;html=1;rounded=0;" parent="1" edge="1">
          <mxGeometry width="50" height="50" relative="1" as="geometry">
            <mxPoint x="380" y="410" as="sourcePoint" />
            <mxPoint x="380" y="380" as="targetPoint" />
          </mxGeometry>
        </mxCell>
        <mxCell id="u8FlF9j5GDv0sumwHlBN-24" value="" style="endArrow=none;html=1;rounded=0;" parent="1" edge="1">
          <mxGeometry width="50" height="50" relative="1" as="geometry">
            <mxPoint x="490" y="409" as="sourcePoint" />
            <mxPoint x="490" y="379" as="targetPoint" />
          </mxGeometry>
        </mxCell>
        <mxCell id="u8FlF9j5GDv0sumwHlBN-25" value="" style="endArrow=none;html=1;rounded=0;" parent="1" edge="1">
          <mxGeometry width="50" height="50" relative="1" as="geometry">
            <mxPoint x="586" y="409" as="sourcePoint" />
            <mxPoint x="586" y="379" as="targetPoint" />
          </mxGeometry>
        </mxCell>
        <mxCell id="u8FlF9j5GDv0sumwHlBN-26" value="" style="endArrow=none;html=1;rounded=0;" parent="1" edge="1">
          <mxGeometry width="50" height="50" relative="1" as="geometry">
            <mxPoint x="700" y="410" as="sourcePoint" />
            <mxPoint x="700" y="380" as="targetPoint" />
          </mxGeometry>
        </mxCell>
        <mxCell id="u8FlF9j5GDv0sumwHlBN-27" value="" style="shape=curlyBracket;whiteSpace=wrap;html=1;rounded=1;labelPosition=left;verticalLabelPosition=middle;align=right;verticalAlign=middle;" parent="1" vertex="1">
          <mxGeometry x="414" y="282.5" width="20" height="75" as="geometry" />
        </mxCell>
        <mxCell id="u8FlF9j5GDv0sumwHlBN-28" value="&lt;span style=&quot;font-size: 14px;&quot;&gt;kube-controller-manager&lt;/span&gt;" style="text;html=1;strokeColor=none;fillColor=none;align=center;verticalAlign=middle;whiteSpace=wrap;rounded=0;" parent="1" vertex="1">
          <mxGeometry x="440" y="270" width="180" height="30" as="geometry" />
        </mxCell>
        <mxCell id="u8FlF9j5GDv0sumwHlBN-30" value="&lt;span style=&quot;font-size: 14px;&quot;&gt;kube-scheduler&lt;/span&gt;" style="text;html=1;strokeColor=none;fillColor=none;align=center;verticalAlign=middle;whiteSpace=wrap;rounded=0;" parent="1" vertex="1">
          <mxGeometry x="440" y="305" width="120" height="30" as="geometry" />
        </mxCell>
        <mxCell id="u8FlF9j5GDv0sumwHlBN-31" value="&lt;span style=&quot;font-size: 14px;&quot;&gt;kwok-controller&lt;/span&gt;" style="text;html=1;strokeColor=none;fillColor=none;align=center;verticalAlign=middle;whiteSpace=wrap;rounded=0;" parent="1" vertex="1">
          <mxGeometry x="440" y="340" width="120" height="30" as="geometry" />
        </mxCell>
        <mxCell id="u8FlF9j5GDv0sumwHlBN-33" value="" style="endArrow=none;html=1;rounded=0;" parent="1" edge="1">
          <mxGeometry width="50" height="50" relative="1" as="geometry">
            <mxPoint x="339.5" y="305" as="sourcePoint" />
            <mxPoint x="339.5" y="275" as="targetPoint" />
          </mxGeometry>
        </mxCell>
        <mxCell id="u8FlF9j5GDv0sumwHlBN-34" value="" style="shape=curlyBracket;whiteSpace=wrap;html=1;rounded=1;labelPosition=left;verticalLabelPosition=middle;align=right;verticalAlign=middle;rotation=-180;" parent="1" vertex="1">
          <mxGeometry x="660" y="220" width="20" height="125" as="geometry" />
        </mxCell>
        <mxCell id="u8FlF9j5GDv0sumwHlBN-35" value="&lt;font style=&quot;font-size: 14px;&quot;&gt;prometheus&lt;/font&gt;" style="text;html=1;strokeColor=none;fillColor=none;align=center;verticalAlign=middle;whiteSpace=wrap;rounded=0;" parent="1" vertex="1">
          <mxGeometry x="690" y="267.5" width="80" height="30" as="geometry" />
        </mxCell>
        <mxCell id="u8FlF9j5GDv0sumwHlBN-38" value="" style="endArrow=none;html=1;rounded=0;exitX=0.5;exitY=1;exitDx=0;exitDy=0;" parent="1" source="u8FlF9j5GDv0sumwHlBN-2" edge="1">
          <mxGeometry width="50" height="50" relative="1" as="geometry">
            <mxPoint x="596" y="419" as="sourcePoint" />
            <mxPoint x="500" y="210" as="targetPoint" />
          </mxGeometry>
        </mxCell>
        <mxCell id="u8FlF9j5GDv0sumwHlBN-39" value="" style="endArrow=none;html=1;rounded=0;" parent="1" edge="1">
          <mxGeometry width="50" height="50" relative="1" as="geometry">
            <mxPoint x="140" y="315" as="sourcePoint" />
            <mxPoint x="120" y="315" as="targetPoint" />
          </mxGeometry>
        </mxCell>
        <mxCell id="RsLSzyoGIGv9UydWnSaS-1" value="&lt;font style=&quot;font-size: 14px;&quot;&gt;Runtimes&lt;/font&gt;" style="text;html=1;strokeColor=none;fillColor=none;align=center;verticalAlign=middle;whiteSpace=wrap;rounded=0;" vertex="1" parent="1">
          <mxGeometry x="470" y="450" width="60" height="30" as="geometry" />
        </mxCell>
        <mxCell id="RsLSzyoGIGv9UydWnSaS-2" value="" style="endArrow=none;html=1;rounded=0;exitX=0.5;exitY=1;exitDx=0;exitDy=0;" edge="1" parent="1">
          <mxGeometry width="50" height="50" relative="1" as="geometry">
            <mxPoint x="499.5" y="430" as="sourcePoint" />
            <mxPoint x="499.5" y="450" as="targetPoint" />
          </mxGeometry>
        </mxCell>
      </root>
    </mxGraphModel>
  </diagram>
  <diagram id="yj7GlSaIdSIza1VYWOzY" name="第 2 页">
    <mxGraphModel dx="606" dy="332" grid="1" gridSize="10" guides="1" tooltips="1" connect="1" arrows="1" fold="1" page="1" pageScale="1" pageWidth="827" pageHeight="1169" math="0" shadow="0">
      <root>
        <mxCell id="0" />
        <mxCell id="1" parent="0" />
        <mxCell id="uC-LIHwhc8BxdzHrhj5O-3" value="" style="edgeStyle=orthogonalEdgeStyle;rounded=0;orthogonalLoop=1;jettySize=auto;html=1;" edge="1" parent="1" source="uC-LIHwhc8BxdzHrhj5O-1" target="uC-LIHwhc8BxdzHrhj5O-2">
          <mxGeometry relative="1" as="geometry" />
        </mxCell>
        <mxCell id="uC-LIHwhc8BxdzHrhj5O-1" value="" style="ellipse;whiteSpace=wrap;html=1;aspect=fixed;" vertex="1" parent="1">
          <mxGeometry x="352.5" y="160" width="20" height="20" as="geometry" />
        </mxCell>
        <mxCell id="uC-LIHwhc8BxdzHrhj5O-7" style="edgeStyle=orthogonalEdgeStyle;rounded=0;orthogonalLoop=1;jettySize=auto;html=1;exitX=0.5;exitY=1;exitDx=0;exitDy=0;entryX=0.5;entryY=0;entryDx=0;entryDy=0;" edge="1" parent="1" source="uC-LIHwhc8BxdzHrhj5O-2" target="uC-LIHwhc8BxdzHrhj5O-6">
          <mxGeometry relative="1" as="geometry" />
        </mxCell>
        <mxCell id="uC-LIHwhc8BxdzHrhj5O-2" value="&lt;font style=&quot;font-size: 14px;&quot;&gt;node-initialize&lt;/font&gt;" style="whiteSpace=wrap;html=1;rounded=1;" vertex="1" parent="1">
          <mxGeometry x="291.25" y="220" width="142.5" height="30" as="geometry" />
        </mxCell>
        <mxCell id="uC-LIHwhc8BxdzHrhj5O-6" value="&lt;font style=&quot;font-size: 14px;&quot;&gt;node-heartbeat&lt;/font&gt;" style="whiteSpace=wrap;html=1;rounded=1;" vertex="1" parent="1">
          <mxGeometry x="302.5" y="300" width="120" height="30" as="geometry" />
        </mxCell>
        <mxCell id="uC-LIHwhc8BxdzHrhj5O-8" value="&lt;font style=&quot;font-size: 14px;&quot;&gt;Node be created that managed by kwok&lt;/font&gt;" style="text;html=1;strokeColor=none;fillColor=none;align=center;verticalAlign=middle;whiteSpace=wrap;rounded=0;" vertex="1" parent="1">
          <mxGeometry x="380" y="180" width="260" height="30" as="geometry" />
        </mxCell>
        <mxCell id="uC-LIHwhc8BxdzHrhj5O-9" value="&lt;font style=&quot;font-size: 14px;&quot;&gt;Update heartbeat&lt;/font&gt;" style="text;html=1;strokeColor=none;fillColor=none;align=center;verticalAlign=middle;whiteSpace=wrap;rounded=0;" vertex="1" parent="1">
          <mxGeometry x="380" y="260" width="120" height="30" as="geometry" />
        </mxCell>
        <mxCell id="uC-LIHwhc8BxdzHrhj5O-10" style="edgeStyle=orthogonalEdgeStyle;rounded=1;orthogonalLoop=1;jettySize=auto;html=1;exitX=0.5;exitY=1;exitDx=0;exitDy=0;entryX=0.839;entryY=1.085;entryDx=0;entryDy=0;entryPerimeter=0;" edge="1" parent="1" source="uC-LIHwhc8BxdzHrhj5O-6" target="uC-LIHwhc8BxdzHrhj5O-6">
          <mxGeometry relative="1" as="geometry">
            <Array as="points">
              <mxPoint x="363" y="370" />
              <mxPoint x="403" y="370" />
            </Array>
          </mxGeometry>
        </mxCell>
        <mxCell id="uC-LIHwhc8BxdzHrhj5O-11" value="&lt;font style=&quot;font-size: 14px;&quot;&gt;Update heartbeat&lt;/font&gt;" style="text;html=1;strokeColor=none;fillColor=none;align=center;verticalAlign=middle;whiteSpace=wrap;rounded=0;" vertex="1" parent="1">
          <mxGeometry x="414" y="340" width="120" height="30" as="geometry" />
        </mxCell>
      </root>
    </mxGraphModel>
  </diagram>
  <diagram id="X74p-y2ISh8XMTJKI9_5" name="第 3 页">
    <mxGraphModel dx="1516" dy="829" grid="1" gridSize="10" guides="1" tooltips="1" connect="1" arrows="1" fold="1" page="1" pageScale="1" pageWidth="827" pageHeight="1169" math="0" shadow="0">
      <root>
        <mxCell id="0" />
        <mxCell id="1" parent="0" />
        <mxCell id="UgPYJfEbYz68tsKeYAKS-1" value="" style="edgeStyle=orthogonalEdgeStyle;rounded=0;orthogonalLoop=1;jettySize=auto;html=1;" edge="1" parent="1" target="UgPYJfEbYz68tsKeYAKS-3">
          <mxGeometry relative="1" as="geometry">
            <mxPoint x="363" y="180" as="sourcePoint" />
          </mxGeometry>
        </mxCell>
        <mxCell id="oSrtJlcFvrx2BNyERFyJ-4" value="" style="edgeStyle=orthogonalEdgeStyle;rounded=0;orthogonalLoop=1;jettySize=auto;html=1;" edge="1" parent="1" source="UgPYJfEbYz68tsKeYAKS-3" target="oSrtJlcFvrx2BNyERFyJ-3">
          <mxGeometry relative="1" as="geometry" />
        </mxCell>
        <mxCell id="UgPYJfEbYz68tsKeYAKS-3" value="&lt;font style=&quot;font-size: 14px;&quot;&gt;pod-ready&lt;/font&gt;" style="whiteSpace=wrap;html=1;rounded=1;" vertex="1" parent="1">
          <mxGeometry x="317.5" y="220" width="90" height="30" as="geometry" />
        </mxCell>
        <mxCell id="UgPYJfEbYz68tsKeYAKS-5" value="&lt;font style=&quot;font-size: 14px;&quot;&gt;Pod scheduled to nodethat managed by kwok&lt;/font&gt;" style="text;html=1;strokeColor=none;fillColor=none;align=center;verticalAlign=middle;whiteSpace=wrap;rounded=0;" vertex="1" parent="1">
          <mxGeometry x="372.5" y="180" width="310" height="30" as="geometry" />
        </mxCell>
        <mxCell id="UgPYJfEbYz68tsKeYAKS-6" value="&lt;font style=&quot;font-size: 14px;&quot;&gt;Update heartbeat&lt;/font&gt;" style="text;html=1;strokeColor=none;fillColor=none;align=center;verticalAlign=middle;whiteSpace=wrap;rounded=0;" vertex="1" parent="1">
          <mxGeometry x="380" y="260" width="120" height="30" as="geometry" />
        </mxCell>
        <mxCell id="oSrtJlcFvrx2BNyERFyJ-1" value="" style="ellipse;whiteSpace=wrap;html=1;aspect=fixed;" vertex="1" parent="1">
          <mxGeometry x="352.5" y="160" width="20" height="20" as="geometry" />
        </mxCell>
        <mxCell id="oSrtJlcFvrx2BNyERFyJ-6" style="edgeStyle=orthogonalEdgeStyle;orthogonalLoop=1;jettySize=auto;html=1;exitX=1;exitY=0.5;exitDx=0;exitDy=0;entryX=0.5;entryY=0;entryDx=0;entryDy=0;rounded=1;" edge="1" parent="1" source="oSrtJlcFvrx2BNyERFyJ-3" target="oSrtJlcFvrx2BNyERFyJ-5">
          <mxGeometry relative="1" as="geometry" />
        </mxCell>
        <mxCell id="oSrtJlcFvrx2BNyERFyJ-9" style="edgeStyle=orthogonalEdgeStyle;rounded=1;orthogonalLoop=1;jettySize=auto;html=1;exitX=0;exitY=0.5;exitDx=0;exitDy=0;entryX=0.5;entryY=0;entryDx=0;entryDy=0;" edge="1" parent="1" source="oSrtJlcFvrx2BNyERFyJ-3" target="oSrtJlcFvrx2BNyERFyJ-7">
          <mxGeometry relative="1" as="geometry">
            <Array as="points">
              <mxPoint x="300" y="330" />
              <mxPoint x="300" y="470" />
              <mxPoint x="363" y="470" />
            </Array>
          </mxGeometry>
        </mxCell>
        <mxCell id="oSrtJlcFvrx2BNyERFyJ-3" value="&lt;font style=&quot;font-size: 14px;&quot;&gt;Job?&lt;/font&gt;" style="rhombus;whiteSpace=wrap;html=1;rounded=0;" vertex="1" parent="1">
          <mxGeometry x="333.75" y="290" width="57.5" height="80" as="geometry" />
        </mxCell>
        <mxCell id="oSrtJlcFvrx2BNyERFyJ-8" style="edgeStyle=orthogonalEdgeStyle;rounded=1;orthogonalLoop=1;jettySize=auto;html=1;entryX=0.5;entryY=0;entryDx=0;entryDy=0;" edge="1" parent="1" source="oSrtJlcFvrx2BNyERFyJ-5" target="oSrtJlcFvrx2BNyERFyJ-7">
          <mxGeometry relative="1" as="geometry">
            <Array as="points">
              <mxPoint x="425" y="470" />
              <mxPoint x="363" y="470" />
            </Array>
          </mxGeometry>
        </mxCell>
        <mxCell id="oSrtJlcFvrx2BNyERFyJ-5" value="&lt;font style=&quot;font-size: 14px;&quot;&gt;pod-ready&lt;/font&gt;" style="whiteSpace=wrap;html=1;rounded=1;" vertex="1" parent="1">
          <mxGeometry x="380" y="400" width="90" height="30" as="geometry" />
        </mxCell>
        <mxCell id="oSrtJlcFvrx2BNyERFyJ-14" style="edgeStyle=orthogonalEdgeStyle;rounded=0;orthogonalLoop=1;jettySize=auto;html=1;entryX=0.5;entryY=0;entryDx=0;entryDy=0;" edge="1" parent="1" source="oSrtJlcFvrx2BNyERFyJ-7" target="oSrtJlcFvrx2BNyERFyJ-13">
          <mxGeometry relative="1" as="geometry" />
        </mxCell>
        <mxCell id="oSrtJlcFvrx2BNyERFyJ-7" value="&lt;font style=&quot;font-size: 14px;&quot;&gt;pod-ready&lt;/font&gt;" style="whiteSpace=wrap;html=1;rounded=1;" vertex="1" parent="1">
          <mxGeometry x="317.5" y="520" width="90" height="30" as="geometry" />
        </mxCell>
        <mxCell id="oSrtJlcFvrx2BNyERFyJ-10" value="&lt;font style=&quot;font-size: 14px;&quot;&gt;No&lt;/font&gt;" style="text;html=1;strokeColor=none;fillColor=none;align=center;verticalAlign=middle;whiteSpace=wrap;rounded=0;" vertex="1" parent="1">
          <mxGeometry x="290" y="300" width="50" height="30" as="geometry" />
        </mxCell>
        <mxCell id="oSrtJlcFvrx2BNyERFyJ-11" value="&lt;font style=&quot;font-size: 14px;&quot;&gt;Yes&lt;/font&gt;" style="text;html=1;strokeColor=none;fillColor=none;align=center;verticalAlign=middle;whiteSpace=wrap;rounded=0;" vertex="1" parent="1">
          <mxGeometry x="389" y="300" width="50" height="30" as="geometry" />
        </mxCell>
        <mxCell id="oSrtJlcFvrx2BNyERFyJ-12" value="&lt;font style=&quot;font-size: 14px;&quot;&gt;.metadata.deletionTimestamp be set&lt;/font&gt;" style="text;html=1;strokeColor=none;fillColor=none;align=center;verticalAlign=middle;whiteSpace=wrap;rounded=0;" vertex="1" parent="1">
          <mxGeometry x="360" y="480" width="277.5" height="30" as="geometry" />
        </mxCell>
        <mxCell id="oSrtJlcFvrx2BNyERFyJ-13" value="" style="ellipse;whiteSpace=wrap;html=1;aspect=fixed;" vertex="1" parent="1">
          <mxGeometry x="352.5" y="590" width="20" height="20" as="geometry" />
        </mxCell>
        <mxCell id="oSrtJlcFvrx2BNyERFyJ-15" value="&lt;font style=&quot;font-size: 14px;&quot;&gt;Pod be deleted&lt;/font&gt;" style="text;html=1;strokeColor=none;fillColor=none;align=center;verticalAlign=middle;whiteSpace=wrap;rounded=0;" vertex="1" parent="1">
          <mxGeometry x="380" y="555" width="107.5" height="30" as="geometry" />
        </mxCell>
      </root>
    </mxGraphModel>
  </diagram>
</mxfile>
